<mxfile host="app.diagrams.net" agent="Mozilla/5.0 (Windows NT 10.0; Win64; x64) AppleWebKit/537.36 (KHTML, like Gecko) Chrome/140.0.0.0 Safari/537.36" version="28.2.5">
  <diagram name="PÃ¡gina-1" id="XESOFf0Zv-Yt7BrnFFBa">
    <mxGraphModel dx="1303" dy="701" grid="1" gridSize="10" guides="1" tooltips="1" connect="1" arrows="1" fold="1" page="1" pageScale="1" pageWidth="827" pageHeight="1169" math="0" shadow="0">
      <root>
        <mxCell id="0" />
        <mxCell id="1" parent="0" />
        <mxCell id="0dHMkRFwdfbqqy_Zb5yT-1" value="Inicio" style="strokeWidth=2;html=1;shape=mxgraph.flowchart.terminator;whiteSpace=wrap;" vertex="1" parent="1">
          <mxGeometry x="700" y="160" width="100" height="60" as="geometry" />
        </mxCell>
        <mxCell id="0dHMkRFwdfbqqy_Zb5yT-2" value="&lt;div&gt;FIn&lt;/div&gt;" style="strokeWidth=2;html=1;shape=mxgraph.flowchart.terminator;whiteSpace=wrap;" vertex="1" parent="1">
          <mxGeometry x="700" y="900" width="100" height="60" as="geometry" />
        </mxCell>
        <mxCell id="0dHMkRFwdfbqqy_Zb5yT-3" style="edgeStyle=orthogonalEdgeStyle;rounded=0;orthogonalLoop=1;jettySize=auto;html=1;" edge="1" parent="1" source="0dHMkRFwdfbqqy_Zb5yT-4" target="0dHMkRFwdfbqqy_Zb5yT-5">
          <mxGeometry relative="1" as="geometry" />
        </mxCell>
        <mxCell id="0dHMkRFwdfbqqy_Zb5yT-4" value="Por favor ponga su temperatura" style="strokeWidth=2;html=1;shape=mxgraph.flowchart.document2;whiteSpace=wrap;size=0.25;" vertex="1" parent="1">
          <mxGeometry x="650" y="320" width="200" height="100" as="geometry" />
        </mxCell>
        <mxCell id="0dHMkRFwdfbqqy_Zb5yT-5" value="&lt;font style=&quot;color: light-dark(rgb(0, 0, 0), rgb(255, 0, 0));&quot;&gt;Temperatura&lt;/font&gt;" style="shape=parallelogram;html=1;strokeWidth=2;perimeter=parallelogramPerimeter;whiteSpace=wrap;rounded=1;arcSize=12;size=0.23;" vertex="1" parent="1">
          <mxGeometry x="665" y="455" width="170" height="60" as="geometry" />
        </mxCell>
        <mxCell id="0dHMkRFwdfbqqy_Zb5yT-6" value="&quot;Enciende la calefaccion&quot;" style="strokeWidth=2;html=1;shape=mxgraph.flowchart.document2;whiteSpace=wrap;size=0.25;" vertex="1" parent="1">
          <mxGeometry x="410" y="655" width="230" height="70" as="geometry" />
        </mxCell>
        <mxCell id="0dHMkRFwdfbqqy_Zb5yT-7" style="edgeStyle=orthogonalEdgeStyle;rounded=0;orthogonalLoop=1;jettySize=auto;html=1;entryX=0.5;entryY=0;entryDx=0;entryDy=0;entryPerimeter=0;" edge="1" parent="1" source="0dHMkRFwdfbqqy_Zb5yT-9">
          <mxGeometry relative="1" as="geometry">
            <mxPoint x="974.5" y="660" as="targetPoint" />
          </mxGeometry>
        </mxCell>
        <mxCell id="0dHMkRFwdfbqqy_Zb5yT-8" value="False" style="edgeLabel;html=1;align=center;verticalAlign=middle;resizable=0;points=[];" vertex="1" connectable="0" parent="0dHMkRFwdfbqqy_Zb5yT-7">
          <mxGeometry x="0.0718" y="1" relative="1" as="geometry">
            <mxPoint as="offset" />
          </mxGeometry>
        </mxCell>
        <mxCell id="0dHMkRFwdfbqqy_Zb5yT-9" value="&lt;span style=&quot;color: rgb(255, 0, 0);&quot;&gt;Temperatura &lt;/span&gt;&lt;span style=&quot;background-color: transparent; color: light-dark(rgb(0, 0, 0), rgb(255, 255, 255));&quot;&gt;&amp;lt;=16&lt;/span&gt;" style="strokeWidth=2;html=1;shape=mxgraph.flowchart.decision;whiteSpace=wrap;" vertex="1" parent="1">
          <mxGeometry x="640" y="530" width="226" height="100" as="geometry" />
        </mxCell>
        <mxCell id="0dHMkRFwdfbqqy_Zb5yT-12" style="edgeStyle=orthogonalEdgeStyle;rounded=0;orthogonalLoop=1;jettySize=auto;html=1;exitX=0;exitY=0.5;exitDx=0;exitDy=0;exitPerimeter=0;entryX=0.5;entryY=0;entryDx=0;entryDy=0;entryPerimeter=0;" edge="1" parent="1" source="0dHMkRFwdfbqqy_Zb5yT-9" target="0dHMkRFwdfbqqy_Zb5yT-6">
          <mxGeometry relative="1" as="geometry" />
        </mxCell>
        <mxCell id="0dHMkRFwdfbqqy_Zb5yT-13" value="True" style="edgeLabel;html=1;align=center;verticalAlign=middle;resizable=0;points=[];" vertex="1" connectable="0" parent="0dHMkRFwdfbqqy_Zb5yT-12">
          <mxGeometry x="0.04" y="4" relative="1" as="geometry">
            <mxPoint as="offset" />
          </mxGeometry>
        </mxCell>
        <mxCell id="0dHMkRFwdfbqqy_Zb5yT-14" style="edgeStyle=orthogonalEdgeStyle;rounded=0;orthogonalLoop=1;jettySize=auto;html=1;entryX=0.5;entryY=0;entryDx=0;entryDy=0;entryPerimeter=0;" edge="1" parent="1" source="0dHMkRFwdfbqqy_Zb5yT-6" target="0dHMkRFwdfbqqy_Zb5yT-2">
          <mxGeometry relative="1" as="geometry" />
        </mxCell>
        <mxCell id="0dHMkRFwdfbqqy_Zb5yT-15" style="edgeStyle=orthogonalEdgeStyle;rounded=0;orthogonalLoop=1;jettySize=auto;html=1;entryX=0.5;entryY=0;entryDx=0;entryDy=0;entryPerimeter=0;" edge="1" parent="1" source="0dHMkRFwdfbqqy_Zb5yT-1" target="0dHMkRFwdfbqqy_Zb5yT-4">
          <mxGeometry relative="1" as="geometry" />
        </mxCell>
        <mxCell id="0dHMkRFwdfbqqy_Zb5yT-16" value="Recursos muriendo" style="shape=umlActor;verticalLabelPosition=bottom;verticalAlign=top;html=1;outlineConnect=0;" vertex="1" parent="1">
          <mxGeometry x="1170" y="395" width="30" height="60" as="geometry" />
        </mxCell>
        <mxCell id="0dHMkRFwdfbqqy_Zb5yT-17" value="" style="verticalLabelPosition=bottom;verticalAlign=top;html=1;shape=mxgraph.basic.flash" vertex="1" parent="1">
          <mxGeometry x="1191" y="295" width="60" height="100" as="geometry" />
        </mxCell>
        <mxCell id="0dHMkRFwdfbqqy_Zb5yT-20" style="edgeStyle=orthogonalEdgeStyle;rounded=0;orthogonalLoop=1;jettySize=auto;html=1;" edge="1" parent="1" source="0dHMkRFwdfbqqy_Zb5yT-18" target="0dHMkRFwdfbqqy_Zb5yT-19">
          <mxGeometry relative="1" as="geometry" />
        </mxCell>
        <mxCell id="0dHMkRFwdfbqqy_Zb5yT-18" value="&lt;span style=&quot;color: rgb(255, 0, 0);&quot;&gt;Temperatura &lt;/span&gt;&amp;gt;=25" style="strokeWidth=2;html=1;shape=mxgraph.flowchart.decision;whiteSpace=wrap;" vertex="1" parent="1">
          <mxGeometry x="861" y="660" width="226" height="100" as="geometry" />
        </mxCell>
        <mxCell id="0dHMkRFwdfbqqy_Zb5yT-19" value="&quot;Enciende el aire&quot;" style="strokeWidth=2;html=1;shape=mxgraph.flowchart.document2;whiteSpace=wrap;size=0.25;" vertex="1" parent="1">
          <mxGeometry x="861" y="790" width="230" height="70" as="geometry" />
        </mxCell>
        <mxCell id="0dHMkRFwdfbqqy_Zb5yT-21" style="edgeStyle=orthogonalEdgeStyle;rounded=0;orthogonalLoop=1;jettySize=auto;html=1;entryX=1;entryY=0.5;entryDx=0;entryDy=0;entryPerimeter=0;" edge="1" parent="1" source="0dHMkRFwdfbqqy_Zb5yT-19" target="0dHMkRFwdfbqqy_Zb5yT-2">
          <mxGeometry relative="1" as="geometry" />
        </mxCell>
      </root>
    </mxGraphModel>
  </diagram>
</mxfile>
